<?xml version="1.0" encoding="UTF-8" ?>
<!DOCTYPE svg PUBLIC "-//W3C//DTD SVG 1.1//EN" "http://www.w3.org/Graphics/SVG/1.1/DTD/svg11.dtd">
<svg width="500pt" height="500pt" viewBox="0 0 500 500" version="1.1" xmlns="http://www.w3.org/2000/svg">
<g id="#080808ff">
<path fill="#080808" opacity="1.00" d=" M 0.00 0.00 L 500.00 0.00 L 500.00 500.00 L 0.00 500.00 L 0.00 0.00 M 412.78 94.90 C 406.40 97.22 399.65 98.59 393.55 101.60 C 386.87 109.01 381.98 117.86 375.28 125.25 C 371.79 129.99 369.82 135.59 367.68 141.01 C 366.95 148.16 363.98 154.89 361.25 161.47 C 362.45 155.79 364.89 150.46 366.55 144.90 C 366.25 144.48 365.65 143.65 365.35 143.23 C 366.32 141.18 367.22 139.10 368.02 136.98 C 368.42 133.30 371.08 130.46 372.44 127.12 C 369.59 127.62 366.77 128.21 363.92 128.68 C 362.40 137.24 359.89 145.57 358.23 154.10 C 356.61 162.20 353.45 170.08 353.31 178.41 C 350.13 185.97 349.23 194.21 347.30 202.12 C 350.07 206.86 354.72 210.53 358.99 214.02 C 371.22 209.85 383.54 205.92 395.63 201.36 C 403.16 194.10 409.42 185.70 415.18 177.00 C 399.29 182.41 383.24 187.32 367.36 192.75 C 368.95 184.66 371.28 176.74 372.70 168.62 C 381.21 166.01 389.50 162.76 397.97 160.06 C 400.67 159.42 402.20 156.89 404.14 155.14 C 410.52 148.42 417.09 141.88 423.74 135.42 C 408.06 139.51 392.81 145.08 377.37 149.96 C 379.27 142.20 380.57 134.33 382.27 126.54 C 392.21 123.87 402.31 121.61 411.88 117.74 C 416.06 115.08 419.53 111.44 423.48 108.45 C 434.89 98.77 446.99 89.97 458.81 80.80 C 459.65 80.28 460.48 79.75 461.31 79.21 C 444.87 83.58 429.08 90.05 412.78 94.90 M 377.64 105.93 C 373.12 113.03 367.34 119.45 364.06 127.26 C 367.18 126.53 370.34 125.80 373.25 124.44 C 377.97 121.29 380.87 116.28 384.11 111.76 C 386.40 108.40 389.18 105.39 391.43 101.98 C 386.70 102.86 382.40 105.25 377.64 105.93 M 337.94 119.92 C 338.70 120.26 340.20 120.95 340.96 121.29 C 340.63 127.98 338.11 134.28 336.88 140.81 C 333.76 156.80 329.50 172.54 326.08 188.47 C 334.80 183.21 341.56 175.55 349.45 169.25 C 353.11 154.67 355.45 139.70 359.20 125.12 C 361.65 120.04 364.50 115.14 366.86 110.01 C 357.23 113.34 347.52 116.44 337.94 119.92 M 315.58 117.24 C 312.78 121.53 310.72 126.35 307.38 130.26 C 301.48 132.82 295.20 134.56 289.22 136.98 C 290.38 137.85 291.53 138.72 292.69 139.61 C 288.86 154.87 285.59 170.28 281.13 185.37 C 279.59 192.93 277.47 200.36 275.89 207.91 C 274.76 213.54 272.77 219.02 272.54 224.81 C 277.00 228.86 281.37 233.07 286.11 236.79 C 296.08 233.81 305.78 229.73 315.82 226.87 C 318.54 226.23 320.12 223.77 322.03 221.96 C 328.57 214.88 335.85 208.48 342.23 201.27 C 344.96 191.35 347.07 181.22 349.10 171.14 C 344.07 174.66 340.13 179.41 335.41 183.28 C 331.86 186.12 327.33 188.00 324.94 192.06 C 321.72 197.23 318.39 202.35 315.15 207.51 C 308.08 210.31 300.78 212.51 293.57 214.89 C 298.26 197.11 301.20 178.93 305.69 161.10 C 308.70 146.41 312.03 131.80 315.58 117.24 M 421.00 148.03 C 416.22 151.06 411.39 154.02 406.64 157.07 C 421.85 150.61 436.70 143.29 451.78 136.52 C 453.64 135.71 455.39 134.67 457.03 133.47 C 445.01 138.29 432.73 142.53 421.00 148.03 M 242.53 151.82 C 237.04 153.89 231.10 154.94 226.01 157.94 C 222.02 161.75 218.26 166.07 215.95 171.11 C 214.54 178.86 212.32 186.45 211.14 194.24 L 210.84 194.76 C 209.94 200.73 207.73 206.41 207.05 212.41 C 210.77 207.27 214.16 201.89 217.87 196.72 C 221.40 191.79 223.64 186.11 226.67 180.89 C 230.82 179.30 234.83 177.37 238.97 175.76 C 238.26 175.87 236.84 176.09 236.13 176.19 L 239.04 175.21 C 238.72 174.54 238.10 173.22 237.78 172.55 L 239.30 172.83 C 242.31 168.67 246.53 165.76 250.37 162.47 C 253.46 158.63 256.54 154.77 260.01 151.27 C 260.73 152.88 261.50 154.47 262.21 156.09 C 261.16 155.04 260.28 153.81 259.05 152.97 C 255.22 156.57 252.87 161.52 248.58 164.65 C 246.15 166.56 243.57 168.34 241.60 170.76 C 240.45 172.18 238.79 173.78 239.38 175.79 C 246.17 172.56 253.28 170.08 260.03 166.74 C 259.46 170.28 258.40 173.73 257.97 177.31 C 264.42 175.64 270.30 172.42 276.18 169.38 C 278.90 159.21 280.80 148.86 283.40 138.67 C 269.76 143.01 256.24 147.70 242.53 151.82 M 185.87 170.64 C 173.37 174.48 160.79 178.03 148.56 182.71 C 145.73 189.69 145.09 197.23 143.32 204.49 C 142.14 209.53 141.21 214.62 140.14 219.68 C 147.87 213.20 153.69 204.50 162.48 199.34 C 171.03 195.89 179.71 192.80 188.38 189.68 C 185.89 197.64 184.83 205.95 182.54 213.96 C 180.76 220.67 179.78 227.56 178.12 234.30 C 179.00 235.28 179.91 236.24 180.85 237.17 C 184.14 233.92 186.73 230.09 189.14 226.17 C 192.12 222.48 196.39 220.11 199.73 216.79 C 201.02 213.37 201.29 209.66 202.12 206.12 C 204.36 194.44 206.88 182.82 209.42 171.21 C 207.85 169.12 206.29 167.02 204.77 164.90 C 198.42 166.63 192.07 168.41 185.87 170.64 M 413.33 194.07 C 410.69 194.88 408.74 196.94 407.05 199.01 C 402.44 204.70 397.50 210.10 392.72 215.63 C 390.02 225.62 388.60 235.92 386.05 245.96 C 382.94 262.53 379.20 278.99 376.03 295.54 C 382.37 288.75 388.45 281.69 395.24 275.34 C 400.34 271.27 400.35 264.17 401.66 258.31 C 409.67 255.30 418.10 253.44 425.96 250.06 C 434.99 242.06 443.03 233.00 451.20 224.14 C 435.90 228.81 420.86 234.33 405.67 239.35 C 405.72 239.02 405.84 238.37 405.89 238.05 C 407.10 230.88 408.36 223.73 409.87 216.62 C 422.24 212.04 434.99 208.41 447.03 202.98 C 452.12 199.15 456.06 194.02 460.65 189.62 C 466.38 183.94 472.57 178.74 478.13 172.89 C 456.48 179.80 434.93 187.01 413.33 194.07 M 227.86 181.74 C 225.63 184.76 224.11 188.20 222.43 191.54 C 217.67 199.63 211.75 206.95 206.77 214.90 C 203.66 227.48 200.79 240.13 198.29 252.85 C 201.31 255.70 204.01 258.86 206.96 261.79 C 218.11 257.84 229.31 254.05 240.52 250.25 C 241.77 249.71 243.36 249.56 244.14 248.29 C 247.93 243.31 251.80 238.39 255.38 233.25 C 257.47 236.27 259.61 239.27 262.16 241.93 C 262.24 240.93 262.42 238.92 262.51 237.92 C 258.28 234.27 259.20 228.01 258.35 223.04 C 256.43 218.73 253.68 214.78 252.73 210.07 C 254.91 212.84 256.71 215.88 258.27 219.03 C 259.74 225.27 257.90 232.56 262.91 237.56 C 265.31 225.97 268.93 214.65 270.91 202.97 C 272.06 196.36 273.68 189.85 275.49 183.40 C 262.36 188.86 248.88 193.41 235.70 198.76 C 240.72 201.91 245.63 205.23 250.79 208.15 C 250.58 209.46 250.37 210.78 250.15 212.11 C 248.88 218.51 246.95 224.78 246.03 231.26 C 237.00 234.18 227.97 237.11 218.84 239.70 C 222.35 220.14 226.95 200.78 229.96 181.14 C 229.43 181.29 228.38 181.59 227.86 181.74 M 45.82 215.24 C 55.71 215.97 65.64 215.60 75.55 215.67 C 73.41 225.13 72.02 234.73 70.06 244.22 C 68.04 252.14 67.06 260.27 65.35 268.25 C 70.36 263.24 75.94 258.87 81.45 254.42 C 83.92 252.02 87.07 249.63 87.41 245.92 C 88.96 237.63 90.34 229.31 92.43 221.13 C 100.73 218.34 109.10 215.75 117.31 212.70 C 115.68 220.47 114.40 228.32 112.26 235.98 C 118.51 232.34 125.77 230.29 130.76 224.77 C 130.99 224.78 131.45 224.79 131.68 224.79 C 129.20 226.21 127.09 228.15 124.94 230.00 C 122.93 231.90 119.99 232.07 117.73 233.57 C 114.38 235.66 110.85 237.47 107.56 239.67 C 101.38 243.18 94.29 245.75 89.28 250.87 C 97.06 265.64 104.75 280.48 112.84 295.08 C 118.95 293.54 124.62 290.80 130.31 288.20 C 130.47 287.72 130.78 286.78 130.93 286.31 C 127.61 280.41 124.39 274.42 121.86 268.12 C 121.30 269.10 120.76 270.10 120.22 271.10 C 119.73 271.17 118.74 271.32 118.25 271.39 C 119.11 269.97 120.10 268.65 121.26 267.47 C 118.52 262.36 115.77 257.25 113.10 252.10 C 119.01 247.07 124.55 241.48 131.52 237.91 C 135.08 219.59 138.10 201.11 142.66 183.00 C 110.51 194.14 78.21 204.85 45.82 215.24 M 144.77 216.92 C 142.65 219.01 139.63 220.68 139.20 223.93 C 135.83 239.25 132.18 254.50 129.43 269.95 C 132.30 274.54 135.46 278.97 138.01 283.76 C 151.44 279.02 165.04 274.78 178.59 270.41 C 183.42 268.22 185.80 263.08 189.48 259.53 C 191.73 257.70 191.96 254.72 192.56 252.09 C 194.51 240.93 197.21 229.91 199.24 218.77 C 197.21 220.24 195.31 221.87 193.44 223.54 C 188.28 227.28 186.13 233.63 181.55 237.99 C 181.88 238.79 182.52 240.39 182.85 241.19 C 181.22 239.62 179.51 238.17 177.80 236.70 C 175.87 242.64 175.12 248.95 172.76 254.75 C 164.65 258.02 156.25 260.66 147.82 262.99 C 149.76 255.38 151.24 247.66 153.01 240.01 C 155.52 227.08 158.92 214.36 161.15 201.37 C 154.95 205.73 150.17 211.68 144.77 216.92 M 394.08 207.49 C 377.41 213.70 360.23 218.40 343.39 224.11 C 339.66 225.55 335.01 225.94 332.53 229.45 C 329.13 233.50 325.49 237.72 324.57 243.11 C 320.49 263.31 315.58 283.34 312.00 303.63 C 317.87 298.66 322.54 292.50 327.91 287.03 C 330.32 284.42 332.91 281.66 333.47 278.00 C 336.45 266.73 338.09 255.19 340.79 243.87 C 349.43 240.87 358.11 237.99 366.77 235.02 C 366.17 237.98 365.50 240.94 364.74 243.87 C 370.19 241.39 376.01 239.86 381.55 237.60 C 382.72 232.36 384.16 227.16 384.73 221.82 C 386.58 216.32 391.01 212.28 394.08 207.49 M 274.43 246.70 C 272.02 248.69 271.47 252.23 269.19 254.42 C 263.70 259.97 257.76 265.26 250.72 268.75 C 248.62 269.60 248.93 272.05 248.45 273.86 C 244.82 295.18 239.49 316.15 235.67 337.43 C 237.16 334.49 238.53 331.51 240.16 328.65 C 240.76 331.37 238.22 333.28 237.31 335.62 C 234.56 340.26 233.65 345.62 232.53 350.81 C 238.28 348.57 243.97 346.18 249.88 344.36 C 252.64 344.05 252.90 341.08 253.30 338.93 C 255.37 325.90 258.88 313.13 260.44 300.01 C 255.99 301.82 253.49 306.17 250.70 309.80 C 247.83 316.23 244.70 322.66 240.15 328.10 C 242.56 322.37 246.77 317.65 249.25 311.95 C 251.13 307.06 254.76 303.14 258.45 299.53 C 259.11 299.53 260.43 299.53 261.09 299.54 C 263.19 288.85 264.96 278.09 267.56 267.50 C 277.04 264.92 286.52 262.34 295.90 259.39 C 294.71 265.88 293.10 272.30 291.69 278.75 C 283.35 283.04 274.60 286.47 266.11 290.47 C 272.89 305.27 280.80 319.51 288.08 334.07 C 295.14 332.13 301.74 328.87 308.77 326.84 C 305.99 321.62 302.80 316.64 300.04 311.40 C 295.74 316.07 293.09 321.92 289.15 326.86 C 293.02 321.76 295.12 315.48 299.81 310.98 C 296.83 305.19 293.61 299.53 290.27 293.95 C 295.45 289.98 301.27 287.01 306.99 283.93 C 309.73 282.09 310.72 278.85 310.88 275.71 L 311.18 275.19 C 312.08 268.75 313.89 262.47 315.15 256.10 C 316.10 250.29 317.78 244.65 318.84 238.87 C 319.32 236.13 320.73 233.72 322.08 231.33 C 306.25 236.62 290.26 241.45 274.43 246.70 M 261.46 252.45 C 257.58 257.73 253.93 263.18 249.70 268.19 C 258.42 262.89 267.57 256.82 272.30 247.45 C 268.65 248.86 263.83 248.88 261.46 252.45 M 354.29 260.51 C 349.61 265.18 345.52 270.39 341.29 275.46 C 347.10 274.20 352.67 272.08 358.34 270.33 C 356.46 278.25 354.79 286.23 352.56 294.06 C 344.68 296.93 336.55 299.01 328.56 301.56 C 329.81 295.59 331.41 289.70 332.43 283.68 C 325.74 290.28 320.12 297.91 312.98 304.05 C 310.33 306.14 310.75 309.95 310.14 312.92 C 312.35 316.28 314.74 319.51 317.14 322.73 C 328.44 319.14 339.61 315.18 350.78 311.22 C 353.92 306.31 357.53 301.73 360.97 297.03 C 362.87 302.09 364.98 307.06 367.15 312.01 C 371.62 291.86 375.59 271.61 380.41 251.54 C 371.64 254.36 363.04 257.64 354.29 260.51 M 73.53 262.60 C 71.01 265.06 68.08 267.05 65.35 269.26 C 63.98 271.99 63.90 275.18 63.22 278.14 C 61.23 288.07 59.02 297.95 57.20 307.91 C 54.53 318.88 53.60 330.20 50.15 340.99 C 53.35 335.16 54.69 328.28 59.36 323.35 C 65.02 316.61 70.91 310.06 76.36 303.14 C 79.45 286.06 82.86 269.03 86.03 251.97 C 82.09 255.78 77.42 258.72 73.53 262.60 M 217.85 266.46 C 213.83 267.86 209.57 268.67 205.79 270.67 C 203.13 272.53 201.71 275.57 199.65 277.99 C 195.25 283.44 190.38 288.49 185.83 293.82 C 183.29 297.07 179.12 299.47 178.49 303.85 C 175.84 316.51 173.09 329.15 170.40 341.80 C 169.12 347.83 167.10 353.79 167.09 360.01 C 170.08 363.51 172.95 367.11 176.09 370.48 C 189.97 365.54 204.18 361.34 217.71 355.52 C 224.15 348.55 228.85 340.17 234.34 332.47 C 218.45 338.05 202.45 343.33 186.66 349.22 C 188.60 341.59 189.84 333.82 191.49 326.13 C 198.63 323.96 205.80 321.91 212.83 319.39 C 220.10 312.48 226.84 305.04 233.92 297.94 C 221.09 302.66 208.26 307.40 195.04 310.92 C 196.81 303.66 197.70 296.23 199.60 289.01 C 210.35 285.93 220.83 281.94 231.67 279.18 C 239.35 271.45 246.20 262.93 252.80 254.28 C 241.31 258.79 229.53 262.50 217.85 266.46 M 401.37 277.63 C 403.21 283.08 404.60 288.70 406.81 294.02 C 413.72 292.27 420.37 289.56 427.13 287.32 C 438.78 277.99 449.34 267.31 460.32 257.18 C 440.66 263.98 421.09 271.03 401.37 277.63 M 189.90 275.68 C 187.46 277.93 185.40 280.62 183.54 283.36 C 181.99 288.25 180.84 293.27 180.02 298.33 C 188.49 289.76 196.30 280.55 203.62 270.99 C 199.02 272.44 194.27 273.62 189.90 275.68 M 377.56 295.55 C 375.16 298.23 375.23 302.05 374.34 305.35 C 384.65 301.17 395.49 298.49 405.86 294.49 C 404.21 288.98 402.49 283.50 400.85 278.00 C 399.57 278.40 398.31 278.82 397.05 279.25 C 397.28 277.97 397.74 275.42 397.97 274.14 C 390.83 280.94 383.92 288.01 377.56 295.55 M 160.80 285.47 C 156.50 300.78 150.44 315.51 145.36 330.56 C 142.53 339.03 138.76 347.16 136.18 355.70 C 141.46 351.09 145.39 345.23 150.27 340.23 C 154.04 335.60 158.47 331.52 162.09 326.80 C 166.16 316.78 170.17 306.71 173.58 296.44 C 175.71 290.58 177.35 284.53 180.28 278.99 C 173.66 280.76 167.34 283.46 160.80 285.47 M 110.53 302.78 C 111.68 310.09 112.15 317.49 113.08 324.83 C 113.63 330.27 114.78 335.67 114.65 341.16 C 115.71 341.21 116.77 341.27 117.84 341.35 C 119.01 339.18 120.19 337.01 121.64 335.03 C 120.49 337.33 119.11 339.51 117.83 341.75 C 117.14 341.70 115.76 341.61 115.07 341.57 C 116.71 361.72 119.65 381.73 121.44 401.87 C 127.88 395.15 134.42 388.50 140.70 381.63 C 142.81 378.29 143.75 374.36 145.45 370.81 C 140.97 367.78 138.91 362.58 135.83 358.33 C 133.52 361.98 132.05 366.09 129.52 369.60 C 127.14 372.99 124.77 376.97 120.56 378.26 C 125.81 373.90 129.92 368.25 132.57 361.98 C 132.91 355.65 131.50 349.38 131.38 343.05 C 130.41 331.38 129.33 319.71 128.49 308.02 C 128.02 304.14 129.33 299.84 127.15 296.33 C 121.41 297.84 115.68 299.77 110.53 302.78 M 139.70 353.67 C 138.60 355.19 135.48 356.60 136.93 358.83 C 139.31 362.95 141.64 367.36 145.69 370.10 C 150.69 356.78 155.86 343.53 160.81 330.19 C 153.45 337.73 146.79 345.90 139.70 353.67 M 50.91 377.93 C 54.46 376.63 57.87 374.95 61.17 373.10 C 75.70 365.78 89.93 357.90 104.48 350.62 C 106.95 349.79 108.00 347.35 109.26 345.31 C 89.65 355.90 70.62 367.54 50.91 377.93 Z" />
</g>
<g id="#fefefeff">
<path fill="#fefefe" opacity="1.00" d=" M 412.78 94.90 C 429.08 90.05 444.87 83.58 461.31 79.21 C 460.48 79.75 459.65 80.28 458.81 80.80 C 446.99 89.97 434.89 98.77 423.48 108.45 C 419.53 111.44 416.06 115.08 411.88 117.74 C 402.31 121.61 392.21 123.87 382.27 126.54 C 380.57 134.33 379.27 142.20 377.37 149.96 C 392.81 145.08 408.06 139.51 423.74 135.42 C 417.09 141.88 410.52 148.42 404.14 155.14 C 402.20 156.89 400.67 159.42 397.97 160.06 C 389.50 162.76 381.21 166.01 372.70 168.62 C 371.28 176.74 368.95 184.66 367.36 192.75 C 383.24 187.32 399.29 182.41 415.18 177.00 C 409.42 185.70 403.16 194.10 395.63 201.36 C 383.54 205.92 371.22 209.85 358.99 214.02 C 354.72 210.53 350.07 206.86 347.30 202.12 C 349.23 194.21 350.13 185.97 353.31 178.41 C 353.45 170.08 356.61 162.20 358.23 154.10 C 359.89 145.57 362.40 137.24 363.92 128.68 C 366.77 128.21 369.59 127.62 372.44 127.12 C 371.08 130.46 368.42 133.30 368.02 136.98 C 367.22 139.10 366.32 141.18 365.35 143.23 C 365.65 143.65 366.25 144.48 366.55 144.90 C 364.89 150.46 362.45 155.79 361.25 161.47 C 363.98 154.89 366.95 148.16 367.68 141.01 C 369.82 135.59 371.79 129.99 375.28 125.25 C 381.98 117.86 386.87 109.01 393.55 101.60 C 399.65 98.59 406.40 97.22 412.78 94.90 Z" />
<path fill="#fefefe" opacity="1.00" d=" M 377.64 105.93 C 382.40 105.25 386.70 102.86 391.43 101.98 C 389.18 105.39 386.40 108.40 384.11 111.76 C 380.87 116.28 377.97 121.29 373.25 124.44 C 370.34 125.80 367.18 126.53 364.06 127.26 C 367.34 119.45 373.12 113.03 377.64 105.93 Z" />
<path fill="#fefefe" opacity="1.00" d=" M 337.94 119.92 C 347.52 116.44 357.23 113.34 366.86 110.01 C 364.50 115.14 361.65 120.04 359.20 125.12 C 355.45 139.70 353.11 154.67 349.45 169.25 C 341.56 175.55 334.80 183.21 326.08 188.47 C 329.50 172.54 333.76 156.80 336.88 140.81 C 338.11 134.28 340.63 127.98 340.96 121.29 C 340.20 120.95 338.70 120.26 337.94 119.92 Z" />
<path fill="#fefefe" opacity="1.00" d=" M 315.58 117.24 C 312.03 131.80 308.70 146.41 305.69 161.10 C 301.20 178.93 298.26 197.11 293.57 214.89 C 300.78 212.51 308.08 210.31 315.15 207.51 C 318.39 202.35 321.72 197.23 324.94 192.06 C 327.33 188.00 331.86 186.12 335.41 183.28 C 340.13 179.41 344.07 174.66 349.10 171.14 C 347.07 181.22 344.96 191.35 342.23 201.27 C 335.85 208.48 328.57 214.88 322.03 221.96 C 320.12 223.77 318.54 226.23 315.82 226.87 C 305.78 229.73 296.08 233.81 286.11 236.79 C 281.37 233.07 277.00 228.86 272.54 224.81 C 272.77 219.02 274.76 213.54 275.89 207.91 C 277.47 200.36 279.59 192.93 281.13 185.37 C 285.59 170.28 288.86 154.87 292.69 139.61 C 291.53 138.72 290.38 137.85 289.22 136.98 C 295.20 134.56 301.48 132.82 307.38 130.26 C 310.72 126.35 312.78 121.53 315.58 117.24 Z" />
<path fill="#fefefe" opacity="1.00" d=" M 421.00 148.03 C 432.73 142.53 445.01 138.29 457.03 133.47 C 455.39 134.67 453.64 135.71 451.78 136.52 C 436.70 143.29 421.85 150.61 406.64 157.07 C 411.39 154.02 416.22 151.06 421.00 148.03 Z" />
<path fill="#fefefe" opacity="1.00" d=" M 242.53 151.82 C 256.24 147.70 269.76 143.01 283.40 138.67 C 280.80 148.86 278.90 159.21 276.18 169.38 C 270.30 172.42 264.42 175.64 257.97 177.31 C 258.40 173.73 259.46 170.28 260.03 166.74 C 253.28 170.08 246.17 172.56 239.38 175.79 C 238.79 173.78 240.45 172.18 241.60 170.76 C 243.57 168.34 246.15 166.56 248.58 164.65 C 252.87 161.52 255.22 156.57 259.05 152.97 C 260.28 153.81 261.16 155.04 262.21 156.09 C 261.50 154.47 260.73 152.88 260.01 151.27 C 256.54 154.77 253.46 158.63 250.37 162.47 C 246.53 165.76 242.31 168.67 239.30 172.83 L 237.78 172.55 C 238.10 173.22 238.72 174.54 239.04 175.21 L 236.13 176.19 C 236.84 176.09 238.26 175.87 238.97 175.76 C 234.83 177.37 230.82 179.30 226.67 180.89 C 223.64 186.11 221.40 191.79 217.87 196.72 C 214.16 201.89 210.77 207.27 207.05 212.41 C 207.73 206.41 209.94 200.73 210.84 194.76 L 211.14 194.24 C 212.32 186.45 214.54 178.86 215.95 171.11 C 218.26 166.07 222.02 161.75 226.01 157.94 C 231.10 154.94 237.04 153.89 242.53 151.82 Z" />
<path fill="#fefefe" opacity="1.00" d=" M 185.87 170.64 C 192.07 168.41 198.42 166.63 204.77 164.90 C 206.29 167.02 207.85 169.12 209.42 171.21 C 206.88 182.82 204.36 194.44 202.12 206.12 C 201.29 209.66 201.02 213.37 199.73 216.79 C 196.39 220.11 192.12 222.48 189.14 226.17 C 186.73 230.09 184.14 233.92 180.85 237.17 C 179.91 236.24 179.00 235.28 178.12 234.30 C 179.78 227.56 180.76 220.67 182.54 213.96 C 184.83 205.95 185.89 197.64 188.38 189.68 C 179.71 192.80 171.03 195.89 162.48 199.34 C 153.69 204.50 147.87 213.20 140.14 219.68 C 141.21 214.62 142.14 209.53 143.32 204.49 C 145.09 197.23 145.73 189.69 148.56 182.71 C 160.79 178.03 173.37 174.48 185.87 170.64 Z" />
<path fill="#fefefe" opacity="1.00" d=" M 413.33 194.07 C 434.93 187.01 456.48 179.80 478.13 172.89 C 472.57 178.74 466.38 183.94 460.65 189.62 C 456.06 194.02 452.12 199.15 447.03 202.98 C 434.99 208.41 422.24 212.04 409.87 216.62 C 408.36 223.73 407.10 230.88 405.89 238.05 C 405.84 238.37 405.72 239.02 405.67 239.35 C 420.86 234.33 435.90 228.81 451.20 224.14 C 443.03 233.00 434.99 242.06 425.96 250.06 C 418.10 253.44 409.67 255.30 401.66 258.31 C 400.35 264.17 400.34 271.27 395.24 275.34 C 388.45 281.69 382.37 288.75 376.03 295.54 C 379.20 278.99 382.94 262.53 386.05 245.96 C 388.60 235.92 390.02 225.62 392.72 215.63 C 397.50 210.10 402.44 204.70 407.05 199.01 C 408.74 196.94 410.69 194.88 413.33 194.07 Z" />
<path fill="#fefefe" opacity="1.00" d=" M 227.86 181.74 C 228.38 181.59 229.43 181.29 229.96 181.14 C 226.95 200.78 222.35 220.14 218.84 239.70 C 227.97 237.11 237.00 234.18 246.03 231.26 C 246.95 224.78 248.88 218.51 250.15 212.11 C 250.37 210.78 250.58 209.46 250.79 208.15 C 245.63 205.23 240.72 201.91 235.70 198.76 C 248.88 193.41 262.36 188.86 275.49 183.40 C 273.68 189.85 272.06 196.36 270.91 202.97 C 268.93 214.65 265.31 225.97 262.91 237.56 C 257.90 232.56 259.74 225.27 258.27 219.03 C 256.71 215.88 254.91 212.84 252.73 210.07 C 253.68 214.78 256.43 218.73 258.35 223.04 C 259.20 228.01 258.28 234.27 262.51 237.92 C 262.42 238.92 262.24 240.93 262.16 241.93 C 259.61 239.27 257.47 236.27 255.38 233.25 C 251.80 238.39 247.93 243.31 244.14 248.29 C 243.36 249.56 241.77 249.71 240.52 250.25 C 229.31 254.05 218.11 257.84 206.96 261.79 C 204.01 258.86 201.31 255.70 198.29 252.85 C 200.79 240.13 203.66 227.48 206.77 214.90 C 211.75 206.95 217.67 199.63 222.43 191.54 C 224.11 188.20 225.63 184.76 227.86 181.74 Z" />
<path fill="#fefefe" opacity="1.00" d=" M 45.82 215.24 C 78.21 204.85 110.51 194.14 142.66 183.00 C 138.10 201.11 135.08 219.59 131.52 237.91 C 124.55 241.48 119.01 247.07 113.10 252.10 C 115.77 257.25 118.52 262.36 121.26 267.47 C 120.10 268.65 119.11 269.97 118.25 271.39 C 118.74 271.32 119.73 271.17 120.22 271.10 C 120.76 270.10 121.30 269.10 121.86 268.12 C 124.39 274.42 127.61 280.41 130.93 286.31 C 130.78 286.78 130.47 287.72 130.31 288.20 C 124.62 290.80 118.95 293.54 112.84 295.08 C 104.75 280.48 97.06 265.64 89.28 250.87 C 94.29 245.75 101.38 243.18 107.56 239.67 C 110.85 237.47 114.38 235.66 117.73 233.57 C 119.99 232.07 122.93 231.90 124.94 230.00 C 127.09 228.15 129.20 226.21 131.68 224.79 C 131.45 224.79 130.99 224.78 130.76 224.77 C 125.77 230.29 118.51 232.34 112.26 235.98 C 114.40 228.32 115.68 220.47 117.31 212.70 C 109.10 215.75 100.73 218.34 92.43 221.13 C 90.34 229.31 88.96 237.63 87.41 245.92 C 87.07 249.63 83.92 252.02 81.45 254.42 C 75.94 258.87 70.36 263.24 65.35 268.25 C 67.06 260.27 68.04 252.14 70.06 244.22 C 72.02 234.73 73.41 225.13 75.55 215.67 C 65.64 215.60 55.71 215.97 45.82 215.24 Z" />
<path fill="#fefefe" opacity="1.00" d=" M 144.77 216.92 C 150.17 211.68 154.95 205.73 161.15 201.37 C 158.92 214.36 155.52 227.08 153.01 240.01 C 151.24 247.66 149.76 255.38 147.82 262.99 C 156.25 260.66 164.65 258.02 172.76 254.75 C 175.12 248.95 175.87 242.64 177.80 236.70 C 179.51 238.17 181.22 239.62 182.85 241.19 C 182.52 240.39 181.88 238.79 181.55 237.99 C 186.13 233.63 188.28 227.28 193.44 223.54 C 195.31 221.87 197.21 220.24 199.24 218.77 C 197.21 229.91 194.51 240.93 192.56 252.09 C 191.96 254.72 191.73 257.70 189.48 259.53 C 185.80 263.08 183.42 268.22 178.59 270.41 C 165.04 274.78 151.44 279.02 138.01 283.76 C 135.46 278.97 132.30 274.54 129.43 269.95 C 132.18 254.50 135.83 239.25 139.20 223.93 C 139.63 220.68 142.65 219.01 144.77 216.92 Z" />
<path fill="#fefefe" opacity="1.00" d=" M 394.08 207.49 C 391.01 212.28 386.58 216.32 384.73 221.82 C 384.16 227.16 382.72 232.36 381.55 237.60 C 376.01 239.86 370.19 241.39 364.74 243.87 C 365.50 240.94 366.17 237.98 366.77 235.02 C 358.11 237.99 349.43 240.87 340.79 243.87 C 338.09 255.19 336.45 266.73 333.47 278.00 C 332.91 281.66 330.32 284.42 327.91 287.03 C 322.54 292.50 317.87 298.66 312.00 303.63 C 315.58 283.34 320.49 263.31 324.57 243.11 C 325.49 237.72 329.13 233.50 332.53 229.45 C 335.01 225.94 339.66 225.55 343.39 224.11 C 360.23 218.40 377.41 213.70 394.08 207.49 Z" />
<path fill="#fefefe" opacity="1.00" d=" M 274.43 246.70 C 290.26 241.45 306.25 236.62 322.08 231.33 C 320.73 233.72 319.32 236.13 318.84 238.87 C 317.78 244.65 316.10 250.29 315.15 256.10 C 313.89 262.47 312.08 268.75 311.18 275.19 L 310.88 275.71 C 310.72 278.85 309.73 282.09 306.99 283.93 C 301.27 287.01 295.45 289.98 290.27 293.95 C 293.61 299.53 296.83 305.19 299.81 310.98 C 295.12 315.48 293.02 321.76 289.15 326.86 C 293.09 321.92 295.74 316.07 300.04 311.40 C 302.80 316.64 305.99 321.62 308.77 326.84 C 301.74 328.87 295.14 332.13 288.08 334.07 C 280.80 319.51 272.89 305.27 266.11 290.47 C 274.60 286.47 283.35 283.04 291.69 278.75 C 293.10 272.30 294.71 265.88 295.90 259.39 C 286.52 262.34 277.04 264.92 267.56 267.50 C 264.96 278.09 263.19 288.85 261.09 299.54 C 260.43 299.53 259.11 299.53 258.45 299.53 C 254.76 303.14 251.13 307.06 249.25 311.95 C 246.77 317.65 242.56 322.37 240.15 328.10 C 244.70 322.66 247.83 316.23 250.70 309.80 C 253.49 306.17 255.99 301.82 260.44 300.01 C 258.88 313.13 255.37 325.90 253.30 338.93 C 252.90 341.08 252.64 344.05 249.88 344.36 C 243.97 346.18 238.28 348.57 232.53 350.81 C 233.65 345.62 234.56 340.26 237.31 335.62 C 238.22 333.28 240.76 331.37 240.16 328.65 C 238.53 331.51 237.16 334.49 235.67 337.43 C 239.49 316.15 244.82 295.18 248.45 273.86 C 248.93 272.05 248.62 269.60 250.72 268.75 C 257.76 265.26 263.70 259.97 269.19 254.42 C 271.47 252.23 272.02 248.69 274.43 246.70 Z" />
<path fill="#fefefe" opacity="1.00" d=" M 261.46 252.45 C 263.83 248.88 268.65 248.86 272.30 247.45 C 267.57 256.82 258.42 262.89 249.70 268.19 C 253.93 263.18 257.58 257.73 261.46 252.45 Z" />
<path fill="#fefefe" opacity="1.00" d=" M 354.29 260.51 C 363.04 257.64 371.64 254.36 380.41 251.54 C 375.59 271.61 371.62 291.86 367.15 312.01 C 364.98 307.06 362.87 302.09 360.97 297.03 C 357.53 301.73 353.92 306.31 350.78 311.22 C 339.61 315.18 328.44 319.14 317.14 322.73 C 314.74 319.51 312.35 316.28 310.14 312.92 C 310.75 309.95 310.33 306.14 312.98 304.05 C 320.12 297.91 325.74 290.28 332.43 283.68 C 331.41 289.70 329.81 295.59 328.56 301.56 C 336.55 299.01 344.68 296.93 352.56 294.06 C 354.79 286.23 356.46 278.25 358.34 270.33 C 352.67 272.08 347.10 274.20 341.29 275.46 C 345.52 270.39 349.61 265.18 354.29 260.51 Z" />
<path fill="#fefefe" opacity="1.00" d=" M 73.53 262.60 C 77.42 258.72 82.09 255.78 86.03 251.97 C 82.86 269.03 79.45 286.06 76.36 303.14 C 70.91 310.06 65.02 316.61 59.36 323.35 C 54.69 328.28 53.35 335.16 50.15 340.99 C 53.60 330.20 54.53 318.88 57.20 307.91 C 59.02 297.95 61.23 288.07 63.22 278.14 C 63.90 275.18 63.98 271.99 65.35 269.26 C 68.08 267.05 71.01 265.06 73.53 262.60 Z" />
<path fill="#fefefe" opacity="1.00" d=" M 217.85 266.46 C 229.53 262.50 241.31 258.79 252.80 254.28 C 246.20 262.93 239.35 271.45 231.67 279.18 C 220.83 281.94 210.35 285.93 199.60 289.01 C 197.70 296.23 196.81 303.66 195.04 310.92 C 208.26 307.40 221.09 302.66 233.92 297.94 C 226.84 305.04 220.10 312.48 212.83 319.39 C 205.80 321.91 198.63 323.96 191.49 326.13 C 189.84 333.82 188.60 341.59 186.66 349.22 C 202.45 343.33 218.45 338.05 234.34 332.47 C 228.85 340.17 224.15 348.55 217.71 355.52 C 204.18 361.34 189.97 365.54 176.09 370.48 C 172.95 367.11 170.08 363.51 167.09 360.01 C 167.10 353.79 169.12 347.83 170.40 341.80 C 173.09 329.15 175.84 316.51 178.49 303.85 C 179.12 299.47 183.29 297.07 185.83 293.82 C 190.38 288.49 195.25 283.44 199.65 277.99 C 201.71 275.57 203.13 272.53 205.79 270.67 C 209.57 268.67 213.83 267.86 217.85 266.46 Z" />
<path fill="#fefefe" opacity="1.00" d=" M 401.37 277.63 C 421.09 271.03 440.66 263.98 460.32 257.18 C 449.34 267.31 438.78 277.99 427.13 287.32 C 420.37 289.56 413.72 292.27 406.81 294.02 C 404.60 288.70 403.21 283.08 401.37 277.63 Z" />
<path fill="#fefefe" opacity="1.00" d=" M 189.90 275.68 C 194.27 273.62 199.02 272.44 203.62 270.99 C 196.30 280.55 188.49 289.76 180.02 298.33 C 180.84 293.27 181.99 288.25 183.54 283.36 C 185.40 280.62 187.46 277.93 189.90 275.68 Z" />
<path fill="#fefefe" opacity="1.00" d=" M 377.56 295.55 C 383.92 288.01 390.83 280.94 397.97 274.14 C 397.74 275.42 397.28 277.97 397.05 279.25 C 398.31 278.82 399.57 278.40 400.85 278.00 C 402.49 283.50 404.21 288.98 405.86 294.49 C 395.49 298.49 384.65 301.17 374.34 305.35 C 375.23 302.05 375.16 298.23 377.56 295.55 Z" />
<path fill="#fefefe" opacity="1.00" d=" M 160.80 285.47 C 167.34 283.46 173.66 280.76 180.28 278.99 C 177.35 284.53 175.71 290.58 173.58 296.44 C 170.17 306.71 166.16 316.78 162.09 326.80 C 158.47 331.52 154.04 335.60 150.27 340.23 C 145.39 345.23 141.46 351.09 136.18 355.70 C 138.76 347.16 142.53 339.03 145.36 330.56 C 150.44 315.51 156.50 300.78 160.80 285.47 Z" />
<path fill="#fefefe" opacity="1.00" d=" M 110.53 302.78 C 115.68 299.77 121.41 297.84 127.15 296.33 C 129.33 299.84 128.02 304.14 128.49 308.02 C 129.33 319.71 130.41 331.38 131.38 343.05 C 131.50 349.38 132.91 355.65 132.57 361.98 C 129.92 368.25 125.81 373.90 120.56 378.26 C 124.77 376.97 127.14 372.99 129.52 369.60 C 132.05 366.09 133.52 361.98 135.83 358.33 C 138.91 362.58 140.97 367.78 145.45 370.81 C 143.75 374.36 142.81 378.29 140.70 381.63 C 134.42 388.50 127.88 395.15 121.44 401.87 C 119.65 381.73 116.71 361.72 115.07 341.57 C 115.76 341.61 117.14 341.70 117.83 341.75 C 119.11 339.51 120.49 337.33 121.64 335.03 C 120.19 337.01 119.01 339.18 117.84 341.35 C 116.77 341.27 115.71 341.21 114.65 341.16 C 114.78 335.67 113.63 330.27 113.08 324.83 C 112.15 317.49 111.68 310.09 110.53 302.78 Z" />
<path fill="#fefefe" opacity="1.00" d=" M 139.70 353.67 C 146.79 345.90 153.45 337.73 160.81 330.19 C 155.86 343.53 150.69 356.78 145.69 370.10 C 141.64 367.36 139.31 362.95 136.93 358.83 C 135.48 356.60 138.60 355.19 139.70 353.67 Z" />
<path fill="#fefefe" opacity="1.00" d=" M 50.91 377.93 C 70.62 367.54 89.65 355.90 109.26 345.31 C 108.00 347.35 106.95 349.79 104.48 350.62 C 89.93 357.90 75.70 365.78 61.17 373.10 C 57.87 374.95 54.46 376.63 50.91 377.93 Z" />
</g>
</svg>
